<?xml version="1.0" encoding="utf-8"?>
<svg width="864" height="587" viewBox="0 0 864 587" fill="none" xmlns="http://www.w3.org/2000/svg">
  <path d="M2.57859 248.921H38.4586C59.5786 248.921 71.8186 253.721 71.8186 268.601C71.8186 280.121 64.6186 286.241 52.0186 288.281V288.521C67.1386 290.441 76.0186 296.801 76.0186 309.401C76.0186 328.001 60.4186 332.921 37.8586 332.921H2.57859V330.641H10.3786V251.201H2.57859V248.921ZM33.7786 290.441V330.641H39.4186C48.6586 330.641 51.2986 323.681 51.2986 312.641V306.281C51.2986 296.441 48.1786 290.441 36.5386 290.441H33.7786ZM33.7786 251.201V288.161H36.8986C45.5386 288.161 48.0586 282.641 48.0586 272.801V267.161C48.0586 255.641 46.0186 251.201 37.6186 251.201H33.7786ZM133.367 330.641L124.607 304.721H100.847L91.6073 330.641H100.607V332.921H82.2473V330.641H87.8873L118.487 248.201H128.327L158.567 330.641H164.087V332.921H124.847V330.641H133.367ZM113.207 270.641L101.927 302.081H123.647L113.207 270.641ZM210.208 290.441H203.848V330.641H211.648V332.921H172.648V330.641H180.448V251.201H172.648V248.921H208.888C233.968 248.921 245.968 251.561 245.968 269.081C245.968 283.721 238.288 288.041 225.568 289.121V289.481C238.528 291.161 242.968 296.201 242.968 310.121V316.481C242.968 324.281 243.328 327.041 246.688 327.041C248.848 327.041 250.648 326.081 252.208 316.721L254.248 316.961C252.448 330.641 249.088 334.121 237.928 334.121C222.808 334.121 218.368 329.081 218.368 312.161V303.401C218.368 294.881 216.688 290.441 210.208 290.441ZM203.848 251.201V288.161H207.688C216.568 288.161 221.128 283.241 221.128 270.281V266.801C221.128 253.361 216.208 251.201 207.808 251.201H203.848ZM265.266 248.921H301.146C322.266 248.921 334.506 253.721 334.506 268.601C334.506 280.121 327.306 286.241 314.706 288.281V288.521C329.826 290.441 338.706 296.801 338.706 309.401C338.706 328.001 323.106 332.921 300.546 332.921H265.266V330.641H273.066V251.201H265.266V248.921ZM296.466 290.441V330.641H302.106C311.346 330.641 313.986 323.681 313.986 312.641V306.281C313.986 296.441 310.866 290.441 299.226 290.441H296.466ZM296.466 251.201V288.161H299.586C308.226 288.161 310.746 282.641 310.746 272.801V267.161C310.746 255.641 308.706 251.201 300.306 251.201H296.466ZM350.368 248.921H412.768L413.968 272.681H411.808C405.208 256.961 399.568 251.561 385.048 251.561H380.848V288.641H384.928C392.728 288.641 397.768 282.041 399.808 272.921H401.608V308.441H399.568C396.688 296.441 392.128 291.761 383.728 291.761H380.848V330.281H385.408C400.648 330.281 411.208 319.841 414.808 306.761H417.208L416.248 332.921H350.368V330.281H357.448V251.561H350.368V248.921ZM468.09 290.441H461.73V330.641H469.53V332.921H430.53V330.641H438.33V251.201H430.53V248.921H466.77C491.85 248.921 503.85 251.561 503.85 269.081C503.85 283.721 496.17 288.041 483.45 289.121V289.481C496.41 291.161 500.85 296.201 500.85 310.121V316.481C500.85 324.281 501.21 327.041 504.57 327.041C506.73 327.041 508.53 326.081 510.09 316.721L512.13 316.961C510.33 330.641 506.97 334.121 495.81 334.121C480.69 334.121 476.25 329.081 476.25 312.161V303.401C476.25 294.881 474.57 290.441 468.09 290.441ZM461.73 251.201V288.161H465.57C474.45 288.161 479.01 283.241 479.01 270.281V266.801C479.01 253.361 474.09 251.201 465.69 251.201H461.73ZM557.285 331.601C564.485 331.601 572.525 327.761 572.525 319.001C572.525 309.041 565.085 305.801 550.325 301.601C535.805 297.521 524.765 291.761 524.765 273.641C524.765 260.201 534.725 247.601 553.205 247.601C564.245 247.601 570.485 251.321 574.565 251.321C576.605 251.321 577.205 250.481 578.045 248.921H579.365L580.205 273.161H578.285C572.165 262.121 564.005 250.121 551.645 250.121C543.005 250.121 537.005 255.161 537.005 262.241C537.005 271.121 545.165 274.121 557.285 277.361C570.605 280.961 585.365 285.521 585.365 305.441C585.365 322.721 573.605 334.121 555.965 334.121C544.325 334.121 534.245 330.521 530.885 330.521C528.965 330.521 528.245 331.841 527.285 334.121H525.605L524.405 305.561H526.445C532.445 317.561 544.085 331.601 557.285 331.601ZM598.758 248.921H636.198V251.201H629.238V288.401H653.118V251.201H646.038V248.921H683.598V251.201H676.518V330.641H683.598V332.921H646.038V330.641H653.118V291.521H629.238V330.641H636.198V332.921H598.758V330.641H605.838V251.201H598.758V248.921ZM752.241 295.841V286.961C752.241 262.361 751.521 250.121 737.121 250.121C722.601 250.121 721.641 262.841 721.641 287.441V296.081C721.641 318.641 723.081 331.601 737.121 331.601C750.561 331.601 752.241 319.961 752.241 295.841ZM697.041 292.241C697.041 264.641 711.321 247.601 738.081 247.601C763.881 247.601 776.961 263.441 776.961 290.681C776.961 317.441 764.361 334.121 736.641 334.121C709.881 334.121 697.041 318.641 697.041 292.241ZM789.687 248.921H824.967C847.527 248.921 860.847 253.961 860.847 272.801C860.847 293.201 845.127 298.481 821.847 298.481H820.887V330.641H835.887V332.921H789.687V330.641H797.487V251.201H789.687V248.921ZM820.887 251.201V296.201H823.407C833.487 296.201 836.127 289.241 836.127 275.321V269.561C836.127 256.001 833.247 251.201 824.127 251.201H820.887Z" style="fill: rgb(16, 24, 40);"/>
  <path d="M258.941 533.577H267.941V536.577H262.241V542.127H266.771V545.127H262.241V551.577H267.941V554.577H258.941V533.577ZM274.188 554.877C272.588 554.877 271.378 554.427 270.558 553.527C269.738 552.607 269.328 551.297 269.328 549.597V548.397H272.448V549.837C272.448 551.197 273.018 551.877 274.158 551.877C274.718 551.877 275.138 551.717 275.418 551.397C275.718 551.057 275.868 550.517 275.868 549.777C275.868 548.897 275.668 548.127 275.268 547.467C274.868 546.787 274.128 545.977 273.048 545.037C271.688 543.837 270.738 542.757 270.198 541.797C269.658 540.817 269.388 539.717 269.388 538.497C269.388 536.837 269.808 535.557 270.648 534.657C271.488 533.737 272.708 533.277 274.308 533.277C275.888 533.277 277.078 533.737 277.878 534.657C278.698 535.557 279.108 536.857 279.108 538.557V539.427H275.988V538.347C275.988 537.627 275.848 537.107 275.568 536.787C275.288 536.447 274.878 536.277 274.338 536.277C273.238 536.277 272.688 536.947 272.688 538.287C272.688 539.047 272.888 539.757 273.288 540.417C273.708 541.077 274.458 541.877 275.538 542.817C276.918 544.017 277.868 545.107 278.388 546.087C278.908 547.067 279.168 548.217 279.168 549.537C279.168 551.257 278.738 552.577 277.878 553.497C277.038 554.417 275.808 554.877 274.188 554.877ZM283.641 536.577H280.191V533.577H290.391V536.577H286.941V554.577H283.641V536.577ZM289.791 551.397H292.971V554.577H289.791V551.397Z" style="fill: rgb(194, 122, 255);"/>
  <path d="M604.099 552.297C604.099 550.797 604.339 549.517 604.819 548.457C605.299 547.377 606.159 546.187 607.399 544.887C608.619 543.587 609.459 542.477 609.919 541.557C610.399 540.637 610.639 539.677 610.639 538.677C610.639 537.777 610.489 537.157 610.189 536.817C609.909 536.457 609.489 536.277 608.929 536.277C607.789 536.277 607.219 536.967 607.219 538.347V540.597H604.099V538.557C604.099 536.857 604.519 535.557 605.359 534.657C606.199 533.737 607.419 533.277 609.019 533.277C610.619 533.277 611.839 533.737 612.679 534.657C613.519 535.557 613.939 536.857 613.939 538.557C613.939 539.837 613.629 541.087 613.009 542.307C612.409 543.527 611.359 544.927 609.859 546.507C608.879 547.547 608.219 548.397 607.879 549.057C607.539 549.697 607.369 550.387 607.369 551.127V551.577H613.639V554.577H604.099V552.297ZM620.941 554.877C619.321 554.877 618.081 554.417 617.221 553.497C616.361 552.577 615.931 551.277 615.931 549.597V538.557C615.931 536.877 616.361 535.577 617.221 534.657C618.081 533.737 619.321 533.277 620.941 533.277C622.561 533.277 623.801 533.737 624.661 534.657C625.521 535.577 625.951 536.877 625.951 538.557V549.597C625.951 551.277 625.521 552.577 624.661 553.497C623.801 554.417 622.561 554.877 620.941 554.877ZM620.941 551.877C622.081 551.877 622.651 551.187 622.651 549.807V538.347C622.651 536.967 622.081 536.277 620.941 536.277C619.801 536.277 619.231 536.967 619.231 538.347V549.807C619.231 551.187 619.801 551.877 620.941 551.877ZM628.123 552.297C628.123 550.797 628.363 549.517 628.843 548.457C629.323 547.377 630.183 546.187 631.423 544.887C632.643 543.587 633.483 542.477 633.943 541.557C634.423 540.637 634.663 539.677 634.663 538.677C634.663 537.777 634.513 537.157 634.213 536.817C633.933 536.457 633.513 536.277 632.953 536.277C631.813 536.277 631.243 536.967 631.243 538.347V540.597H628.123V538.557C628.123 536.857 628.543 535.557 629.383 534.657C630.223 533.737 631.443 533.277 633.043 533.277C634.643 533.277 635.863 533.737 636.703 534.657C637.543 535.557 637.963 536.857 637.963 538.557C637.963 539.837 637.653 541.087 637.033 542.307C636.433 543.527 635.383 544.927 633.883 546.507C632.903 547.547 632.243 548.397 631.903 549.057C631.563 549.697 631.393 550.387 631.393 551.127V551.577H637.663V554.577H628.123V552.297ZM645.714 550.767H639.414V547.767L645.414 533.577H649.014V547.767H650.574V550.767H649.014V554.577H645.714V550.767ZM645.714 547.767V539.577H645.654L642.414 547.767H645.714Z" style="paint-order: stroke; fill: rgb(194, 122, 255);"/>
  <path d="M461.019 79.2844C461.019 80.6826 459.885 81.8165 458.485 81.8165C457.086 81.8165 455.951 80.6826 455.951 79.2844C455.951 77.8862 457.086 76.7522 458.485 76.7522C459.885 76.7522 461.019 77.8862 461.019 79.2844Z" fill="#BE9359" style="stroke: rgb(194, 122, 255);"/>
  <path d="M447.043 19.6483C447.045 15.6963 445.718 11.8583 443.277 8.74955C440.835 5.64079 437.42 3.44132 433.578 2.50371C429.737 1.56611 425.692 1.94469 422.091 3.57875C418.491 5.21281 415.543 8.00771 413.722 11.5154C411.9 15.0232 411.31 19.0405 412.045 22.9236C412.781 26.8066 414.799 30.3305 417.778 32.9302C420.756 35.5299 424.522 37.0549 428.471 37.2608C432.42 37.4667 436.323 36.3415 439.556 34.0656C441.869 32.4377 443.756 30.2783 445.059 27.7693C446.362 25.2603 447.042 22.4751 447.043 19.6483Z" stroke-width="4" stroke-linecap="round" stroke-linejoin="round" style="stroke: rgb(194, 122, 255);"/>
  <path d="M504.826 19.6512C504.825 16.1647 503.79 12.7568 501.851 9.85837C499.912 6.95995 497.156 4.70116 493.933 3.36756C490.71 2.03397 487.163 1.68544 483.742 2.36606C480.32 3.04669 477.177 4.72591 474.711 7.1914C472.244 9.65689 470.564 12.798 469.883 16.2175C469.203 19.637 469.552 23.1814 470.887 26.4027C472.221 29.6239 474.482 32.3773 477.382 34.3148C480.283 36.2523 483.693 37.2868 487.181 37.2876C489.499 37.2883 491.794 36.8325 493.935 35.9464C496.076 35.0603 498.022 33.7612 499.66 32.1234C501.299 30.4855 502.599 28.541 503.485 26.401C504.371 24.261 504.827 21.9674 504.826 19.6512V19.6512Z" stroke-width="4" stroke-linecap="round" stroke-linejoin="round" style="stroke: rgb(194, 122, 255);"/>
  <path d="M487.574 148.863C487.572 145.412 487.086 141.978 486.129 138.661L468.829 78.6546L462.77 57.6172C461.627 58.0093 460.426 58.2082 459.217 58.2059C458.907 58.2083 458.598 58.194 458.289 58.1629V58.1629C456.465 58.0052 454.707 57.4003 453.172 56.4018C451.637 55.4033 450.372 54.042 449.489 52.4384L439.374 34.1924C436.432 36.2142 432.945 37.2947 429.374 37.2905L447.749 78.6655L458.297 102.318L485.032 162.282C486.708 158.006 487.57 153.455 487.574 148.863V148.863Z" stroke-width="4" stroke-linecap="round" stroke-linejoin="round" style="stroke: rgb(194, 122, 255);"/>
  <path d="M489.452 37.1357C485.733 37.6224 481.955 36.9077 478.67 35.0959L462.777 57.6154L469.29 80.2287L489.452 37.1357Z" stroke-width="4" stroke-linecap="round" stroke-linejoin="round" style="stroke: rgb(194, 122, 255);"/>
  <path d="M458.45 102.646L447.75 78.6609L430.265 138.661C427.992 146.439 428.382 154.754 431.373 162.285L458.45 102.646Z" stroke-width="4" stroke-linecap="round" stroke-linejoin="round" style="stroke: rgb(194, 122, 255);"/>
  <path d="M357.238 81.7533L243.763 82.9814L245.258 170.903" stroke-opacity="0.913725" stroke-width="4.00058" stroke-linecap="round" stroke-linejoin="round" style="stroke: rgb(194, 122, 255);"/>
  <path d="M556.155 86.2402H669.624V174.162" stroke-opacity="0.913725" stroke-width="4" stroke-linecap="round" stroke-linejoin="round" style="stroke: rgb(194, 122, 255);"/>
  <path d="M245.649 391.548V489.974L460.24 584L670.91 489.974V391.548" stroke-opacity="0.913725" stroke-width="4" stroke-linecap="round" style="stroke: rgb(194, 122, 255);"/>
  <path d="M 323.782 496.357 L 323.782 489.197 L 324.262 489.197 C 325.742 494.077 328.182 495.477 331.462 495.477 C 334.422 495.477 335.542 494.397 335.542 492.877 C 335.542 491.077 333.582 490.677 330.542 489.837 C 327.342 488.957 323.782 487.717 323.782 483.277 C 323.782 479.197 326.582 476.517 330.822 476.517 C 332.582 476.517 333.782 476.957 334.862 477.437 C 335.342 477.637 335.502 477.757 335.982 477.757 C 336.582 477.757 336.862 477.437 337.382 476.437 L 337.822 476.437 L 337.822 482.557 L 337.342 482.557 C 335.902 478.877 333.862 477.357 331.022 477.357 C 328.382 477.357 327.302 478.437 327.302 479.677 C 327.302 481.517 329.702 481.957 332.342 482.677 C 335.502 483.517 339.022 484.797 339.022 489.517 C 339.022 494.077 336.062 496.357 331.542 496.357 C 329.622 496.357 328.262 495.957 326.742 495.197 C 326.502 495.037 326.142 494.877 325.982 494.877 C 325.462 494.877 324.902 495.237 324.262 496.357 L 323.782 496.357 Z M 340.206 465.957 L 349.846 465.957 L 349.846 480.597 C 350.526 478.597 351.846 476.517 355.806 476.517 C 359.526 476.517 362.006 478.357 362.006 483.197 L 362.006 495.237 L 364.246 495.237 L 364.246 495.957 L 352.926 495.957 L 352.926 495.237 L 354.566 495.237 L 354.566 482.237 C 354.566 478.837 354.086 478.437 353.086 478.437 C 351.406 478.437 349.846 480.957 349.846 484.197 L 349.846 495.237 L 351.566 495.237 L 351.566 495.957 L 340.206 495.957 L 340.206 495.237 L 342.406 495.237 L 342.406 466.677 L 340.206 466.677 L 340.206 465.957 Z M 374.455 486.557 L 375.615 486.557 L 375.615 483.477 C 375.615 478.397 375.175 477.077 373.575 477.077 C 372.855 477.077 371.695 477.397 371.695 478.677 C 371.695 478.997 371.775 479.397 371.935 479.837 L 372.935 479.837 C 373.135 480.357 373.255 480.877 373.255 481.637 C 373.255 483.517 371.735 484.757 369.735 484.757 C 367.255 484.757 366.295 483.397 366.295 481.437 C 366.295 478.077 369.215 476.517 374.655 476.517 C 380.935 476.517 383.055 478.277 383.055 484.077 L 383.055 492.197 C 383.055 493.837 383.535 494.277 384.215 494.277 C 384.935 494.277 385.615 493.517 385.815 490.157 L 386.415 490.197 C 386.215 494.997 384.735 496.357 381.295 496.357 C 378.055 496.357 376.255 495.357 375.775 493.397 C 375.135 495.317 373.975 496.357 371.175 496.357 C 368.375 496.357 365.255 495.517 365.255 491.517 C 365.255 487.477 368.735 486.557 374.455 486.557 Z M 373.895 494.757 C 374.655 494.757 375.615 493.477 375.615 490.917 L 375.615 487.197 L 375.335 487.197 C 373.655 487.197 372.855 488.397 372.855 490.837 L 372.855 491.477 C 372.855 494.357 373.135 494.757 373.895 494.757 Z M 384.025 477.637 L 384.025 476.917 L 395.985 476.917 L 395.985 477.637 L 393.465 477.637 L 398.265 490.917 L 402.585 477.637 L 399.905 477.637 L 399.905 476.917 L 405.305 476.917 L 405.305 477.637 L 403.545 477.637 L 397.625 495.957 L 393.065 495.957 L 385.665 477.637 L 384.025 477.637 Z M 404.898 486.477 C 404.898 479.557 409.618 476.517 415.178 476.517 C 421.458 476.517 424.138 479.677 423.898 485.637 L 412.618 485.637 L 412.618 487.197 C 412.618 491.917 413.458 495.117 417.338 495.117 C 420.298 495.117 422.298 493.237 423.178 490.157 L 423.898 490.277 C 422.978 493.717 420.898 496.357 415.218 496.357 C 408.098 496.357 404.898 492.277 404.898 486.477 Z M 412.658 484.837 L 416.778 484.837 L 416.778 482.877 C 416.778 478.677 416.458 477.277 414.818 477.277 C 413.418 477.277 412.658 478.637 412.658 482.877 L 412.658 484.837 Z M 425.853 496.357 L 425.853 489.197 L 426.333 489.197 C 427.813 494.077 430.253 495.477 433.533 495.477 C 436.493 495.477 437.613 494.397 437.613 492.877 C 437.613 491.077 435.653 490.677 432.613 489.837 C 429.413 488.957 425.853 487.717 425.853 483.277 C 425.853 479.197 428.653 476.517 432.893 476.517 C 434.653 476.517 435.853 476.957 436.933 477.437 C 437.413 477.637 437.573 477.757 438.053 477.757 C 438.653 477.757 438.933 477.437 439.453 476.437 L 439.893 476.437 L 439.893 482.557 L 439.413 482.557 C 437.973 478.877 435.933 477.357 433.093 477.357 C 430.453 477.357 429.373 478.437 429.373 479.677 C 429.373 481.517 431.773 481.957 434.413 482.677 C 437.573 483.517 441.093 484.797 441.093 489.517 C 441.093 494.077 438.133 496.357 433.613 496.357 C 431.693 496.357 430.333 495.957 428.813 495.197 C 428.573 495.037 428.213 494.877 428.053 494.877 C 427.533 494.877 426.973 495.237 426.333 496.357 L 425.853 496.357 Z M 469.664 504.997 C 472.384 504.997 473.744 501.917 473.744 498.557 C 473.744 496.077 472.784 494.437 471.624 492.877 C 469.944 494.797 467.464 496.357 463.104 496.357 C 456.744 496.357 451.664 494.357 451.664 488.877 C 451.664 485.477 453.264 483.197 457.944 482.157 C 455.704 480.117 454.424 478.077 454.424 475.237 C 454.424 469.757 458.944 467.517 463.624 467.517 C 469.224 467.517 471.624 469.717 471.624 472.837 C 471.624 475.597 469.584 477.797 465.184 479.317 C 466.064 479.917 467.104 480.597 468.304 481.357 C 470.424 482.717 472.584 484.077 474.384 485.797 C 474.824 483.757 475.024 481.797 475.064 479.957 L 471.904 479.957 L 471.904 479.157 L 478.864 479.157 L 478.864 479.957 L 476.064 479.957 C 476.024 482.237 475.824 484.477 475.304 486.717 C 477.224 488.837 478.784 490.917 478.784 494.837 C 478.784 500.557 474.024 505.957 468.824 505.957 C 465.344 505.957 463.344 504.437 463.344 501.917 C 463.344 499.917 464.744 498.557 466.664 498.557 C 468.704 498.557 469.864 499.557 469.864 501.437 C 469.864 501.837 469.784 502.317 469.624 502.877 L 468.224 502.877 C 467.824 504.077 468.064 504.997 469.664 504.997 Z M 464.224 495.317 C 467.504 495.317 469.584 493.837 470.944 492.037 C 469.624 490.637 468.184 489.477 465.784 487.877 C 462.864 485.957 460.384 484.397 458.504 482.757 C 458.104 483.597 457.904 484.997 457.904 487.757 C 457.904 493.437 460.144 495.317 464.224 495.317 Z M 459.824 472.437 C 459.824 474.917 460.824 476.317 464.464 478.837 C 466.944 477.517 466.984 475.717 466.984 473.077 C 466.984 469.877 465.784 468.357 463.504 468.357 C 461.824 468.357 459.824 469.197 459.824 472.437 Z M 491.542 490.237 L 491.542 477.637 L 489.342 477.637 L 489.342 476.917 L 491.542 476.917 L 491.542 471.757 L 498.982 469.917 L 498.982 476.917 L 504.182 476.917 L 504.182 477.637 L 498.982 477.637 L 498.982 491.117 C 498.982 493.477 499.342 494.757 500.742 494.757 C 502.662 494.757 503.862 492.997 504.222 490.277 L 504.902 490.357 C 504.542 493.477 503.222 496.357 498.342 496.357 C 494.382 496.357 491.542 495.197 491.542 490.237 Z M 518.644 478.037 C 516.724 478.037 514.924 480.917 514.924 484.517 L 514.924 495.237 L 517.764 495.237 L 517.764 495.957 L 505.284 495.957 L 505.284 495.237 L 507.484 495.237 L 507.484 477.637 L 505.284 477.637 L 505.284 476.917 L 514.924 476.917 L 514.924 480.757 C 515.644 477.917 517.884 476.517 520.284 476.517 C 522.644 476.517 524.524 477.757 524.524 480.797 C 524.524 483.077 523.324 484.597 521.164 484.597 C 518.484 484.597 517.204 482.917 518.044 480.077 L 519.484 480.077 C 520.284 478.437 519.484 478.037 518.644 478.037 Z M 527.049 470.437 C 527.049 468.477 528.129 466.717 531.129 466.717 C 533.609 466.717 535.089 467.957 535.089 470.397 C 535.089 472.517 533.929 474.157 531.049 474.157 C 527.809 474.157 527.049 472.117 527.049 470.437 Z M 524.929 476.917 L 534.729 476.917 L 534.729 495.237 L 536.969 495.237 L 536.969 495.957 L 525.089 495.957 L 525.089 495.237 L 527.289 495.237 L 527.289 477.637 L 524.929 477.637 L 524.929 476.917 Z M 537.784 476.917 L 547.424 476.917 L 547.424 480.597 C 548.064 478.597 549.384 476.517 553.064 476.517 C 555.904 476.517 558.024 477.757 558.704 480.837 C 559.344 478.837 560.984 476.517 564.584 476.517 C 568.064 476.517 570.464 478.357 570.464 483.197 L 570.464 495.237 L 572.704 495.237 L 572.704 495.957 L 561.624 495.957 L 561.624 495.237 L 563.024 495.237 L 563.024 482.237 C 563.024 478.837 562.584 478.437 561.864 478.437 C 560.424 478.437 558.944 480.597 558.944 483.957 L 558.944 495.237 L 560.384 495.237 L 560.384 495.957 L 550.104 495.957 L 550.104 495.237 L 551.504 495.237 L 551.504 482.237 C 551.504 478.837 551.064 478.437 550.344 478.437 C 548.864 478.437 547.424 480.957 547.424 484.197 L 547.424 495.237 L 548.864 495.237 L 548.864 495.957 L 537.784 495.957 L 537.784 495.237 L 539.984 495.237 L 539.984 477.637 L 537.784 477.637 L 537.784 476.917 Z M 574.212 496.357 L 574.212 489.197 L 574.692 489.197 C 576.172 494.077 578.612 495.477 581.892 495.477 C 584.852 495.477 585.972 494.397 585.972 492.877 C 585.972 491.077 584.012 490.677 580.972 489.837 C 577.772 488.957 574.212 487.717 574.212 483.277 C 574.212 479.197 577.012 476.517 581.252 476.517 C 583.012 476.517 584.212 476.957 585.292 477.437 C 585.772 477.637 585.932 477.757 586.412 477.757 C 587.012 477.757 587.292 477.437 587.812 476.437 L 588.252 476.437 L 588.252 482.557 L 587.772 482.557 C 586.332 478.877 584.292 477.357 581.452 477.357 C 578.812 477.357 577.732 478.437 577.732 479.677 C 577.732 481.517 580.132 481.957 582.772 482.677 C 585.932 483.517 589.452 484.797 589.452 489.517 C 589.452 494.077 586.492 496.357 581.972 496.357 C 580.052 496.357 578.692 495.957 577.172 495.197 C 576.932 495.037 576.572 494.877 576.412 494.877 C 575.892 494.877 575.332 495.237 574.692 496.357 L 574.212 496.357 Z" style="fill: rgb(16, 24, 40);"/>
  <path d="M432.776 366.716C428.359 366.708 424.024 367.913 420.245 370.199C416.467 372.486 413.389 375.766 411.348 379.681C407.552 387.229 401.06 393.078 393.155 396.071C391.05 396.9 388.817 397.362 386.555 397.438C380.628 397.458 374.837 395.663 369.961 392.296C373.748 401.005 380.022 408.404 387.997 413.565C395.973 418.727 405.294 421.422 414.795 421.313C425.635 421.356 436.188 417.837 444.829 411.296C456.566 401.922 456.023 390.609 456.023 390.609C456.024 377.412 446.077 366.716 432.776 366.716Z" stroke-width="4" stroke-linecap="round" stroke-linejoin="round" style="stroke: rgb(194, 122, 255);"/>
  <path d="M525.347 397.432C523.085 397.358 520.853 396.896 518.747 396.066C510.845 393.075 504.354 387.228 500.557 379.682C498.517 375.767 495.439 372.487 491.66 370.201C487.881 367.914 483.547 366.709 479.129 366.717C465.829 366.717 455.881 377.411 455.881 390.603C455.881 390.603 455.334 401.913 467.075 411.29C475.717 417.83 486.27 421.349 497.109 421.307C506.61 421.415 515.931 418.72 523.905 413.559C531.88 408.398 538.154 401 541.941 392.292C537.066 395.659 531.274 397.453 525.347 397.432Z" stroke-width="4" stroke-linecap="round" stroke-linejoin="round" style="stroke: rgb(194, 122, 255);"/>
</svg>